
<svg xmlns="http://www.w3.org/2000/svg" version="1.1" xmlns:xlink="http://www.w3.org/1999/xlink" preserveAspectRatio="none" x="0px" y="0px" width="256px" height="256px" viewBox="0 0 256 256">
<defs>
<linearGradient id="Gradient_1" gradientUnits="userSpaceOnUse" x1="128.2" y1="254.20000000000002" x2="128.2" y2="9.400000000000006" spreadMethod="pad">
<stop  offset="0%" stop-color="#221C40"/>

<stop  offset="100%" stop-color="#221C41"/>
</linearGradient>

<g id="Layer4_0_FILL">
<path fill="#FFFFFF" stroke="none" d="
M 255.5 64.7
L 255.45 64.5
Q 254.02734375 50.7427734375 246.1 51.95 244.0171875 51.951953125 242.5 52.5 241.968359375 49.2078125 241 43.6
L 240.95 43.15 240.8 42.8
Q 235.3787109375 27.1248046875 221.95 27.5 215.8916015625 27.5029296875 214.25 30.3 213.0513671875 31.371875 212.75 33.75 203.44140625 26.691796875 187.45 21.4 178.1064453125 18.317578125 159.35 11.65
L 159.25 11.6
Q 142.3876953125 5.9599609375 129.8 3.2
L 129.3 3.1 102 3.1
Q 66.4234375 4.72578125 40.65 30.05 17.923046875 52.369140625 18.25 72.5 18.2267578125 77.9109375 20.75 83.5
L 20.7 83.45
Q 22.34609375 87.1291015625 24.55 89.35 24.5771484375 89.1384765625 24.6 88.9 24.608984375 87.4873046875 24.7 86.5
L 26.65 90.55
Q 26.523046875 90.744921875 26.4 90.9 25.701171875 91.9767578125 25.2 93.15
L 25.05 92.75
Q 25.1349609375 92.9931640625 25.2 93.2
L 25.2 93.2
Q 24.2923828125 95.5115234375 24.25 98.25 24.0693359375 102.5427734375 25.55 106.2
L 25.6 106.3 25.6 106.35
Q 26.9658203125 109.4412109375 29.15 111.4 29.01328125 111.69296875 28.85 112
L 28.8 112.15 28.75 112.3
Q 27.7841796875 114.9212890625 27.15 116.05
L 27.05 116.25
Q 25.990625 118.0212890625 24.95 126.75
L 24.95 126.85
Q 24.34375 133.54296875 24.35 136.8 24.35 138.85 24.35 143.6 24.353125 148.384765625 25 151.55
L 25 151.6
Q 27.5359375 164.086328125 28.2 166.2
L 28.3 166.5 28.45 166.85
Q 32.075 174.45 34.75 180.15
L 34.75 180.05
Q 39.1732421875 189.74453125 39.4 193.05 39.1181640625 194.722265625 37.1 197.25
L 37.15 197.15
Q 37.092578125 197.2759765625 37 197.35
L 30.6 197.45
Q 26.3248046875 196.2447265625 25.2 195.8 24.709765625 195.5056640625 24.2 194.95
L 23.8 194.6 23.55 194.4
Q 21.3919921875 192.1294921875 18.4 192.65 15.062890625 192.3181640625 12.9 194.35
L 12.65 194.6 12.6 194.65
Q 11.487109375 195.763671875 10.9 197.2 6.13984375 202.117578125 6.2 208.7 6.156640625 212.912890625 7.9 217.6 0.413671875 218.1296875 0.8 225.35 0.7984375 226.94453125 1.35 228.35 2.24453125 238.526171875 14.95 249.1
L 14.95 249.15
Q 27.4951171875 259.608203125 41.3 260.55 44.84609375 261.5841796875 48.35 262.5 47.8 263.8271484375 47.8 264.1 47.8 267.05 50.65 267.05 51.65 267.05 52.8 266.3 53.35 266.65 54.3 266.65 55.35 266.65 56.55 265.2
L 59.4 265.2
Q 81.0173828125 270.0640625 102.6 271.75 103.8908203125 272.1859375 105 272.5 105.4740234375 272.61953125 105.9 272.7 106.859375 272.958984375 107.7 273.1 108.75 273.25 110.3 273.45 117.05 274.05 137.6 274.05 163.15 274.05 164.95 273.45 166.4 272.9 168.15 270.65 168.645703125 270.023828125 169.15 269.4 175.3587890625 268.502734375 181.55 267.3 182.428515625 267.705859375 183.3 268.1 186.4 269.35 190 269.35 193.95 269.35 196.95 268.2 198.05 267.75 198.7 267.35 199.95 268.35 201.3 268.35 202.65 268.35 203.4 267.35 204.1 266.55 204.1 265.45 204.1 265.210546875 202.8 262.5 206.63203125 261.509375 210.45 260.4
L 210.6 260.35 210.75 260.3
Q 224.281640625 255.5751953125 233.65 244.4
L 233.7 244.35
Q 244.4166015625 231.287109375 244.25 218.7 244.245703125 206.4724609375 236.6 207
L 235.3 207.05
Q 231.683984375 207.7447265625 228.55 207.9 229.1599609375 205.201953125 229.65 202
L 229.7 201.95 229.7 201.9
Q 230.0826171875 199.27578125 229.65 197.25
L 229.65 197.3
Q 228.384765625 190.1068359375 221.8 190.4 220.0705078125 189.980078125 216.1 192.65
L 215.85 192.85
Q 214.9091796875 193.224609375 212.35 193.35 212.301171875 192.5228515625 212.3 188.8 212.3078125 181.3845703125 216.45 175.05 222.716796875 165.5333984375 222.35 161.35 222.3927734375 158.4052734375 220.9 150.45
L 220.9 150.35 220.9 150.3
Q 220.8826171875 150.21953125 220.85 150.15 223.308984375 145.8912109375 223.95 136.75
L 223.95 136.4 223.35 126.85 223.35 127.05
Q 223.342578125 126.8169921875 223.3 126.6 224.5955078125 123.52109375 225.3 118.35
L 225.35 118.05 225.35 117.7
Q 225.4255859375 112.309375 222.4 104.05 222.6849609375 104.05 222.95 104.05 242.4 104.0533203125 250.55 90.8
L 250.55 90.75
Q 255.610546875 82.8359375 255.6 73.65 255.6005859375 73.4533203125 255.5 65
L 255.5 64.7 Z"/>

<path fill="#000000" stroke="none" d="
M 24.6 88.65
Q 24.6115234375 88.7923828125 24.6 88.9 24.5994140625 89.0759765625 24.6 89.25
L 24.6 88.65 Z"/>
</g>

<g id="Layer3_0_FILL">
<path fill="url(#Gradient_1)" stroke="none" d="
M 200.45 257.8
Q 200.4865234375 257.87265625 200.5 257.95 201.6626953125 257.6548828125 202.8 257.35 201.639453125 257.5984375 200.45 257.8
M 47.3 257.05
Q 46.4380859375 256.426953125 45.4 255.6 42.3232421875 255.696484375 39.3 255.3 40.696875 255.510546875 42.1 255.6 44.713671875 256.3544921875 47.3 257.05 Z"/>

<path fill="#FFFFFF" stroke="none" d="
M 24.6 89.25
L 24.6 88.65
Q 24.6115234375 88.7923828125 24.6 88.9 24.5994140625 89.0759765625 24.6 89.25 Z"/>

<path fill="#1D419A" stroke="none" d="
M 144.9 218.4
Q 143.9150390625 218.5974609375 143.35 219.4 133.8541015625 233.283203125 129.45 233.75 123.516015625 233.4880859375 114.9 224.1
L 114.9 224.1
Q 113.1775390625 222.2021484375 111.8 220.55
L 111.85 220.65
Q 110.1775390625 218.5275390625 108.95 216.9 108.378515625 216.1404296875 107.45 215.95 106.508203125 215.765234375 105.65 216.25 103.55234375 217.4669921875 99.55 218.7
L 99.6 218.7
Q 84.3599609375 223.2201171875 82.9 223.95
L 83 223.9
Q 79.9830078125 225.31015625 70.45 229.1 70.012890625 229.31796875 69.65 229.65 66.1755859375 233.0791015625 65.15 236.6
L 65.15 236.6
Q 61.38125 248.569140625 59.25 254.1 59.2390625 254.1634765625 59.2 254.2 59.1712890625 254.328515625 59.1 254.45
L 59.1 254.4
Q 58.0412109375 257.0091796875 57.1 259 55.824609375 261.706640625 54.8 263.25 54.8146484375 263.3029296875 54.8 263.3 54.646875 263.5685546875 54.5 263.75 53.959375 264.556640625 54.05 265.5 54.1884765625 266.44296875 54.9 267.05 55.6056640625 267.7033203125 56.55 267.7
L 59.1 267.7
Q 80.6087890625 272.5283203125 102.1 274.2 103.2947265625 274.6138671875 104.35 274.9
L 104.35 274.9
Q 104.8494140625 275.044921875 105.3 275.15 106.3525390625 275.413671875 107.25 275.55 107.31484375 275.5744140625 107.35 275.55 108.4091796875 275.7248046875 109.95 275.9 110.0318359375 275.93828125 110.05 275.95 116.88125 276.5548828125 137.6 276.55 163.8958984375 276.5515625 165.75 275.8 165.7845703125 275.8119140625 165.8 275.8 167.8044921875 275.15234375 170.1 272.2
L 170.1 272.15
Q 170.2873046875 271.9658203125 170.45 271.75 175.8576171875 270.93671875 181.25 269.9 181.769140625 270.1462890625 182.25 270.35 182.3291015625 270.399609375 182.35 270.4 185.903125 271.8462890625 190 271.85 194.4626953125 271.8453125 197.85 270.5
L 197.9 270.5
Q 199.2236328125 269.973046875 200 269.45 200.6591796875 269.0623046875 200.95 268.35 201.2919921875 267.6494140625 201.15 266.9 201.0130859375 266.132421875 200.45 265.55 200.375 265.475 200.25 265.35 199.7583984375 264.8619140625 199.05 264.7 198.3986328125 264.5576171875 197.75 264.75 197.9419921875 264.613671875 197.75 264.25 197.5525390625 263.791796875 197.15 263.45 196.99765625 263.2861328125 196.8 263.05 196.8001953125 263.0177734375 196.75 262.95 195.7986328125 261.6609375 194.85 259.05 194.150390625 257.10234375 193.45 254.5
L 193.45 254.45
Q 193.1453125 253.2671875 192.8 251.9
L 192.85 252
Q 192.0603515625 248.07109375 190.35 238.15 190.3177734375 237.89140625 190.2 237.6 188.3919921875 233.33984375 186.3 229.65 186.0365234375 229.1603515625 185.55 228.8 185.0591796875 228.4982421875 184.45 228.4 172.2376953125 226.7892578125 160.05 223.5 150.1818359375 220.8763671875 146.75 218.75 145.8939453125 218.2 144.9 218.4
M 107.35 245.5
Q 107.5611328125 245.4521484375 107.75 245.4 108.139453125 246.7412109375 108.3 247.15
L 107.35 248.1 107.35 245.5 Z"/>

<path fill="#DE9161" stroke="none" d="
M 143.45 214.95
L 143.45 214.85
Q 143.450390625 213.8671875 142.75 213.15 142.10390625 212.421875 141.1 212.35 134.52265625 211.895703125 121.85 207.85 121.231640625 207.673046875 120.6 207.8 119.9673828125 207.929296875 119.45 208.35 115.1912109375 212.02890625 111.2 212.55 110.375 212.6666015625 109.75 213.25 109.1578125 213.8427734375 109 214.65 108.895703125 215.5046875 109.3 216.25 110.7228515625 218.887890625 115.85 224.25
L 115.8 224.25
Q 124.101953125 233.0005859375 129.15 232.7 130.0513671875 232.70078125 130.75 232.1 136.8267578125 227.0771484375 139 224.15 139.0533203125 224.113671875 139.1 224.05 142.7564453125 219.765625 143.05 219.15 143.1201171875 219.01015625 143.15 218.85 143.4517578125 218.5564453125 143.45 214.95 Z"/>

<path fill="#5C3115" stroke="none" d="
M 199.5 181.8
Q 198.54296875 181.7568359375 197.8 182.35 197.0013671875 183.049609375 196.45 183.85 190.591015625 188.1296875 188.1 191.85 187.980859375 191.97578125 187.85 192.1
L 187.8 192.1
Q 186.8701171875 192.8068359375 185.95 193.4 185.9171875 193.450390625 185.85 193.45 181.1681640625 196.9072265625 178.3 198.65
L 178.3 198.7
Q 172.7048828125 202.296875 166.85 204.05 166.67265625 204.121484375 166.45 204.2 161.4646484375 206.7330078125 156.75 208.7
L 156.75 208.65
Q 153.336328125 210.075 150.5 210.9 149.6298828125 211.1578125 149.1 211.9 148.6177734375 212.678125 148.7 213.55 148.83046875 214.488671875 149.5 215.1 150.1671875 215.752734375 151.05 215.8 153.6751953125 215.956640625 158.05 217.1 167.1234375 219.54921875 173 222.45 173.0810546875 222.4775390625 173.15 222.5 174.92421875 223.2431640625 179.1 225.1 179.164453125 225.1486328125 179.2 225.15 181.0767578125 225.92578125 182.65 226.5 183.0865234375 226.6966796875 183.55 226.7
L 183.65 226.7
Q 183.745703125 226.704296875 183.85 226.7 184.7935546875 226.6978515625 185.8 227.45 186.1353515625 227.7123046875 186.5 227.85 188.644921875 228.6248046875 189.5 229.85 189.654296875 230.4232421875 190.1 232.75 190.1009765625 232.8125 190.1 232.85 190.450390625 234.378125 190.9 236.5 190.9517578125 236.755078125 191.05 237 191.9634765625 239.0986328125 192.95 242.25
L 192.95 242.3
Q 193.799609375 244.723828125 194.6 247.85 194.924609375 249.0115234375 195.15 250 195.343359375 250.6626953125 195.8 251.15 196.3099609375 251.64296875 196.95 251.8 197.623828125 251.9951171875 198.25 251.8 200.7162109375 251.1115234375 204.75 250 204.79453125 250.0126953125 204.85 250 212.8513671875 247.5177734375 218.7 242.05
L 218.7 242.05
Q 228.3056640625 232.8453125 232 224.3 232.3263671875 223.533203125 232.1 222.7 231.9376953125 221.9125 231.3 221.35 230.6544921875 220.840234375 229.8 220.8 214.605078125 220.084765625 214.15 216.85 214.3142578125 216.073046875 215.4 214.55
L 215.35 214.6
Q 217.9724609375 211.0619140625 217.95 209.4 217.954296875 209.295703125 217.95 209.2
L 217.95 209.1
Q 217.951171875 208.4166015625 217.6 207.8 217.251171875 207.23125 216.65 206.9 216.0376953125 206.5720703125 215.35 206.6
L 213.95 206.65
Q 213.5169921875 206.3810546875 212.95 206.3 212.8455078125 206.3130859375 212.75 206.3 212.2484375 205.887109375 211.55 205.75 207.4154296875 205.1087890625 204.85 201.45
L 204.9 201.55
Q 203.1435546875 198.8298828125 202.95 196.9 202.925 196.46640625 202.75 196.05 201.998828125 185.969921875 201.9 184.15 201.843359375 183.21171875 201.15 182.5 200.4619140625 181.84296875 199.5 181.8
M 199.6 91.15
Q 199.1642578125 91.0037109375 198.7 91 198.0880859375 90.992578125 197.35 91.2 196.54296875 91.4291015625 196 92.1 195.5162109375 92.8345703125 195.55 93.7 195.5865234375 94.559375 196.15 95.2 196.45703125 95.59453125 196.65 96.05 196.6994140625 96.1375 196.75 96.2 197.43828125 97.5970703125 198.05 100.55 198.108203125 100.864453125 198.2 101.1 198.9859375 104.907421875 200 106.65
L 200 106.65
Q 200.264453125 107.13515625 200.8 108.35 201.0451171875 108.95078125 201.5 109.35 202.0025390625 109.7341796875 202.6 109.85 202.3626953125 110.0224609375 202.5 110.4
L 202.55 110.45
Q 203.9064453125 113.6955078125 204 115.5 204.0064453125 115.6369140625 204 115.75 204.425390625 118.9423828125 204.7 121 204.85625 121.891796875 205.5 122.5 206.1869140625 123.10625 207.05 123.15 207.5982421875 123.173828125 208.05 123 208.1890625 123 208.3 123 209.3390625 123.003515625 210.05 122.25 210.803515625 121.5390625 210.8 120.5 210.8 120.4 210.8 120.1 210.873828125 120.1009765625 211.05 120.05 211.828125 119.960546875 212.4 119.4 212.978515625 118.87890625 213.15 118.1
L 213.4 116.9
Q 213.451171875 116.6482421875 213.45 116.4 213.4802734375 114.3986328125 212.5 110.55 212.49375 110.2517578125 212.4 109.9 211.314453125 106.2978515625 211.2 105.4 211.1869140625 105.37578125 211.15 105.35 210.4541015625 99.3578125 207.4 96.4 207.206640625 96.1755859375 206.95 96 206.8939453125 95.9466796875 206.8 95.85
L 206.8 95.85
Q 203.5703125 92.7001953125 199.6 91.15
M 71.3 110.7
Q 71.351953125 110.6802734375 71.4 110.6 72.066796875 109.980078125 72.5 109 72.8837890625 108.2111328125 72.65 107.35 72.476953125 106.5369140625 71.8 106 71.115625 105.455859375 70.25 105.45 70.2123046875 105.4482421875 70.2 105.45 69.460546875 105.2396484375 68.7 105.45 64.7189453125 106.5611328125 60.3 107.95
L 51.75 107.95
Q 50.5490234375 107.8029296875 49.35 107.7
L 49.4 107.7
Q 46.8228515625 107.43515625 44.75 107.05 43.8958984375 106.8810546875 43.1 107.3 42.343359375 107.7267578125 42 108.55 40.3 112.65 38.55 116.85
L 38.5 116.85
Q 34.7341796875 126.3546875 34.75 135.1 34.747265625 142.0158203125 36.65 150.05 38.5689453125 158.2884765625 42.65 167.4
L 42.65 167.4
Q 49.98125 184.174609375 50.05 193.75 50.051953125 197.445703125 49.75 199.6 49.7025390625 200.209375 49.9 200.75 49.8263671875 201.00546875 49.7 201.25 49.6076171875 201.4837890625 49.55 201.7 49.4708984375 201.9708984375 49.4 202.15 47.1349609375 205.84296875 37.8 209.95
L 29.65 209.95
Q 26.1318359375 208.792578125 21.3 206.8 20.51171875 206.476953125 19.7 206.7 18.8880859375 206.9111328125 18.35 207.55 17.8541015625 208.2546875 17.85 209.1 17.6802734375 212.7701171875 21.85 216.45 21.912890625 216.52421875 21.95 216.55 23.308984375 217.5984375 24.95 218.75 25.014453125 218.8248046875 25.05 218.85 29.529296875 221.6609375 30.05 221.5 29.843359375 223.363671875 27.2 225.95
L 27.25 225.95
Q 23.7220703125 229.3208984375 19.4 230.2 18.4427734375 230.4001953125 17.85 231.2 17.3025390625 231.9869140625 17.4 232.95 17.5501953125 233.940625 17.95 234.8 18.0759765625 235.520703125 18.55 236.1 20.25859375 238.0373046875 22.65 240.3 22.6865234375 240.36328125 22.7 240.4 28.934765625 246.8216796875 31.7 247.65 31.81875 247.6775390625 31.9 247.7 38.8662109375 249.623046875 47.1 250.2
L 47.15 250.2
Q 48.5802734375 250.287109375 48.8 250.05 48.8 250.25 48.8 250.5 48.80546875 251.1083984375 49.1 251.65 49.3890625 252.208984375 49.9 252.55 50.6791015625 253.1123046875 51.35 253.75 52.0251953125 254.3779296875 52.9 254.45 53.769140625 254.5193359375 54.5 254 55.2216796875 253.5326171875 55.45 252.7 55.684375 252.0333984375 55.9 251.45 58.72734375 245.48046875 60.55 241.5
L 60.55 241.45
Q 63.819921875 234.29921875 64.15 233.55 64.199609375 233.497265625 64.2 233.45 65.06640625 231.6568359375 67.75 229.95 68.0685546875 229.782421875 68.3 229.5 70.5591796875 227.0685546875 74.25 225.05 82.0498046875 221.5134765625 84.2 220.5 84.2751953125 220.4974609375 84.3 220.45 85.539453125 219.8958984375 90.15 218.55
L 90.15 218.55
Q 95.384765625 216.945703125 98.2 215.75
L 98.25 215.75
Q 103.270703125 213.56796875 105.45 213.2 106.2099609375 213.1720703125 106.75 212.9 107.349609375 212.683984375 107.75 212.2 109.14375 210.6419921875 109.15 208.15 109.1515625 208.094140625 109.15 208
L 109 205.05
Q 108.9642578125 204.3341796875 108.5 203.7 108.0884765625 203.1302734375 107.4 202.85 101.27109375 200.5326171875 96.7 198.55 96.4888671875 198.411328125 96.2 198.3 92.6564453125 196.7755859375 90.25 195.35 89.679296875 194.996875 89 195 88.675 195.0044921875 88.35 194.95
L 88.4 194.95
Q 85.8177734375 194.38046875 81.85 192.05 81.8126953125 192.0142578125 81.75 191.95 80.708203125 191.4294921875 79.75 190.65 79.6767578125 190.626953125 79.6 190.55 73.069921875 186.1755859375 70.9 182.2 70.8423828125 182.057421875 70.75 181.9 70.1455078125 180.8830078125 69.45 177.3 69.398046875 177.0556640625 69.35 176.8 69.280859375 176.434375 69.1 176.1 68.843359375 175.557421875 68.25 175.15 67.6837890625 174.7744140625 67.05 174.2 67.0265625 174.1986328125 67 174.15 65.965625 173.162890625 65 171.3 64.6794921875 170.65078125 64 170.25 63.3701171875 169.9001953125 62.6 169.95 61.875390625 170.0119140625 61.25 170.45 59.8267578125 171.5833984375 58.15 171.6 52.696875 171.1205078125 49.6 158.5
L 49.65 158.55
Q 47.9943359375 151.2111328125 47.65 143.75 47.6517578125 138.47265625 48.15 136.1 48.1873046875 136.072265625 48.2 136 49.19453125 130.8916015625 52.15 130.55 53.3033203125 130.845703125 54.55 133 54.9587890625 134.083984375 55.55 134.75 55.9322265625 135.15234375 56.4 135.35 56.917578125 135.5998046875 57.45 135.6
L 57.55 135.6
Q 58.1240234375 135.74453125 58.75 136.45 60.357421875 138.5732421875 60.45 138.65 60.9939453125 139.187109375 61.7 139.35 62.3970703125 139.5013671875 63.05 139.25 63.7537109375 139.011328125 64.2 138.45 68.309765625 133.2517578125 68.9 131.55 68.95234375 131.4837890625 68.95 131.4 69.3955078125 130.319140625 69.4 125.4 69.3939453125 125.2798828125 69.35 125.15
L 68.65 118.05
Q 68.6486328125 116.5453125 69.35 115.65 70.0486328125 114.933203125 70.05 113.95 70.05 113.6 70.05 113.15 70.174609375 112.10546875 71.2 110.8 71.2625 110.7625 71.3 110.7
M 244.65 69.85
Q 244.6484375 68.811328125 243.9 68.05 243.158984375 67.337109375 242.1 67.35 235.4533203125 67.4369140625 232.15 66.4 231.9294921875 66.2935546875 231.75 66.2 231.5443359375 66.06015625 231.3 65.95 231.1544921875 65.9259765625 231 65.85 230.5478515625 65.401171875 230.55 64.6 230.5505859375 63.3810546875 231.25 62.35 231.2876953125 62.3205078125 231.3 62.25 232.3791015625 60.6880859375 232.65 57.95
L 232.6 58.1
Q 232.7939453125 57.085546875 232.8 55.8 232.8130859375 54.8515625 232.05 49.2 231.955078125 48.2953125 231.25 47.65 230.5392578125 47.0513671875 229.6 47.05
L 229.4 47.05
Q 228.4822265625 47.0509765625 227.75 47.65 227.0724609375 48.24765625 226.9 49.15 226.232421875 52.403125 221.55 56.35 216.153125 61.024609375 209.25 62.85
L 209.35 62.85
Q 202.09921875 64.52734375 198.95 65.3
L 198.95 65.3
Q 193.0904296875 66.884375 190.75 69.1 190.724609375 69.1412109375 190.65 69.15 189.8900390625 69.9669921875 189.35 70.7 187.887109375 72.3958984375 186.9 74.2 186.7509765625 74.4869140625 186.65 74.8 186.5798828125 75.101171875 186.2 75.95
L 186.2 75.95
Q 185.8435546875 76.937109375 185.05 78.65 184.8546875 79.1720703125 184.85 79.7
L 184.85 81.65
Q 184.8482421875 82.162109375 185 82.6 185.31875 84.455078125 185.35 85.6 184.9755859375 86.8482421875 185.7 88.1 185.8279296875 88.386328125 185.9 88.55 185.9623046875 88.6353515625 186 88.7 187.944140625 92.0568359375 192.05 92.1 192.4029296875 92.2337890625 196 90.8 196.0380859375 90.814453125 196.05 90.8 196.1119140625 90.78984375 196.15 90.75 196.6708984375 90.6525390625 197.3 90.6 197.7986328125 90.5447265625 198.2 90.3 198.2701171875 90.276171875 198.3 90.25
L 198.6 90.25
Q 198.811328125 90.255078125 199 90.2 201.1947265625 89.855078125 204.15 89.85 208.345703125 89.8505859375 209.85 90.6 210.54375 91.0345703125 211.9 91.35
L 211.95 91.35
Q 212.0115234375 91.3958984375 212.05 91.4 212.1001953125 91.419140625 212.1 91.4 215.88515625 92.6228515625 221.15 92.85
L 221.2 92.85
Q 221.79921875 93.25 222.5 93.25
L 223.45 93.25
Q 224.601171875 93.308984375 227.2 92.4 227.272265625 92.38828125 227.35 92.35 228.1599609375 92.02265625 229.35 91.6 229.485546875 91.5447265625 229.6 91.45 230.7021484375 90.9404296875 232.05 90.45 232.1765625 90.403125 232.3 90.35 237.9666015625 87.5931640625 239.4 86.3 242.315234375 84.2056640625 243.5 80.9 243.5400390625 80.798828125 243.55 80.7 243.9849609375 79.1576171875 244.6 76.2 244.6517578125 75.9587890625 244.65 75.7
L 244.65 69.85 Z"/>

<path fill="#FFCB9D" stroke="none" d="
M 181.45 86.85
Q 180.957421875 86.6498046875 180.4 86.65
L 155.05 86.9
Q 154.8267578125 86.898828125 154.55 86.95 151.5640625 87.6052734375 133.45 92.1 126.83984375 93.753125 117.8 95.35
L 117.8 95.3 113.25 96.1
Q 113.201953125 96.1126953125 113.15 96.1 110.0421875 96.6232421875 106.65 97.1 99.0859375 98.2517578125 91.8 99.75
L 91.75 99.75 86.15 100.95 86.15 100.95
Q 83.673828125 101.5337890625 81.2 102.15 81.16171875 102.1595703125 81.1 102.15 79.175 102.5478515625 77.2 103.15
L 77.4 103.1
Q 76.6115234375 103.2791015625 75.8 103.7 75.3841796875 103.973828125 75.05 104.35 74.758984375 104.768359375 74.6 105.25 74.2146484375 106.8099609375 72.9 109.95 72.015625 111.786328125 71.25 113.05 70.900390625 113.6666015625 70.9 114.35 70.9 114.55 70.9 114.75 70.77578125 114.8611328125 70.55 115.1
L 70.65 115.05
Q 69.041015625 116.948046875 69.25 118.15 69.2548828125 118.2830078125 69.25 118.4
L 70.05 125.4
Q 70.0580078125 130.761328125 67.65 135.15 67.66328125 135.1755859375 67.65 135.2 64.153125 141.312109375 64.4 142.15 64.353515625 145.3548828125 66.55 152.1 68.167578125 157.8361328125 68.2 160.4 68.1982421875 161.9728515625 68.15 162.65 68.0689453125 162.7904296875 67.95 162.9 67.8171875 163.0056640625 67.7 163.1 67.3494140625 162.7802734375 66.85 162.6 65.105859375 161.8498046875 62.95 159.15
L 63 159.2
Q 60.3720703125 155.7244140625 59.6 152.6
L 59.6 139.9
Q 59.603515625 138.8607421875 58.85 138.1 58.7671875 138.0171875 58.65 137.85 58.1892578125 137.1091796875 57.3 136.8 56.46796875 136.5392578125 55.6 136.85 54.6703125 136.59453125 54.4 134.9 54.2865234375 133.9724609375 53.55 133.35 52.873828125 132.74296875 51.95 132.75 51.0115234375 132.7578125 50.3 133.35 49.603125 133.9818359375 49.45 134.9 48.3294921875 142.9689453125 48.35 143.7 48.3439453125 143.8232421875 48.35 143.95 48.711328125 147.55078125 49.2 151.05
L 49.2 151.1
Q 49.6966796875 153.98828125 50.35 156.8
L 50.35 156.75
Q 53.33046875 171.590625 57.85 170.95 60.14765625 171.2943359375 61.85 168.05 61.8869140625 168.0498046875 61.9 168 62.015234375 167.8724609375 62.2 167.85 62.875 168.05 63.55 167.85
L 63.6 167.85
Q 63.3830078125 168.09921875 63.75 168.45 64.2806640625 169.0314453125 65 169.2 65.766796875 169.361328125 66.45 169.05 67.190234375 168.786328125 67.6 168.15 67.9388671875 167.683984375 68 167.15 68.44765625 167.8974609375 68.9 169 69.0138671875 169.6544921875 68.9 172.55 68.8013671875 174.55625 69.1 176.1 69.280859375 176.434375 69.35 176.8 69.398046875 177.0556640625 69.45 177.3 69.69375 178.00625 70.05 178.6 70.061328125 178.62734375 70.05 178.65 71.313671875 181.565234375 72.2 183.15 72.284375 183.275 72.35 183.35 73.7078125 185.3384765625 75.9 187 76.571875 187.510546875 77.35 187.5 79.1255859375 188.471484375 82.2 189.65 84.455078125 191.2427734375 87.35 193
L 87.4 193
Q 89.175 194.037890625 90.95 195
L 90.9 194.95
Q 91.4443359375 195.2697265625 92.1 195.7 92.2263671875 195.79140625 92.3 195.85 101.8208984375 200.940234375 117.85 206.15
L 117.9 206.15
Q 135.170703125 211.6447265625 142.45 211.6 148.826171875 211.72265625 166.3 203.25 179.440234375 196.747265625 185.4 192.75 185.49765625 192.7265625 185.55 192.65 189.2486328125 189.8357421875 197.95 181.4 197.974609375 181.35859375 198 181.3 200.899609375 178.275390625 203.1 175.95 203.3962890625 175.654296875 203.55 175.25 204.27578125 173.719921875 206.1 171 206.14921875 170.9873046875 206.15 170.95 207.9779296875 168.4978515625 209.9 165.65 209.934375 165.623828125 209.95 165.6 210.6634765625 164.6701171875 211.05 161.8 211.0904296875 161.709375 211.1 161.6 211.1802734375 160.401171875 211.3 159.7 211.4052734375 159.1783203125 211.25 158.65 211.075390625 157.821875 210.5 156.7
L 210.5 156.65
Q 209.612109375 154.9865234375 208.45 152.8 208.449609375 152.7677734375 208.4 152.7 205.5041015625 147.514453125 205.3 146.6 205.3 146.45 205.3 146.35 205.2998046875 146.0458984375 205.2 145.75 205.0931640625 145.207421875 205 145 204.9310546875 144.7298828125 204.75 144.5 204.5861328125 142.5544921875 204.45 141.35 204.625390625 141.8712890625 205 142.25 204.9681640625 142.440234375 205.15 143.05 205.2384765625 143.351953125 205.4 143.6 205.9509765625 144.536328125 206.75 145.15 207.51796875 145.757421875 208.45 145.7 209.398046875 145.6404296875 210.05 144.95 210.6318359375 144.4537109375 210.9 143.55 212.3392578125 140.6212890625 213.05 138.55 213.076953125 138.4958984375 213.1 138.4 213.7189453125 136.2091796875 213.7 134.85 213.7314453125 133.6802734375 212.95 130.6
L 213 130.65
Q 212.2890625 127.4095703125 211.65 126.65 211.2298828125 125.99375 210.45 125.7 209.7064453125 125.4244140625 208.9 125.65 207.6064453125 125.99296875 206.2 127.05
L 206.2 127.1
Q 206.04296875 127.2072265625 205.85 127.25 205.16015625 127.5634765625 204.7 128.2 204.297265625 128.834375 204.3 129.6
L 204.3 139.95
Q 204.275 139.78984375 204.25 139.65
L 204.25 130.75
Q 204.2484375 130.58828125 204.2 130.4 204.1322265625 129.6921875 204 128.75 203.8212890625 126.42421875 204.2 122.6 204.2447265625 122.484765625 204.25 122.35
L 204.25 122.25
Q 204.2623046875 121.145703125 203.95 119.4 203.9548828125 119.2755859375 203.9 119.15 202.392578125 113.51171875 200.85 110.35
L 200.85 110.4
Q 200.2146484375 108.940625 199.35 107.15 197.9759765625 103.8484375 196.05 99.2
L 196.05 99.25
Q 195.588671875 97.9650390625 195.25 97 194.6525390625 95.4560546875 194.3 94.45 194.05 93.7380859375 193.4 93.25 192.783984375 92.815625 192 92.8 188.53671875 92.6251953125 185.5 89.3 185.4576171875 89.26171875 185.4 89.2 185.06796875 88.88203125 184.75 88.5 184.186328125 87.7841796875 183.3 87.6 183.19375 87.583984375 183.1 87.55 182.7849609375 87.3990234375 182.4 87.3 182.3015625 87.3140625 182.3 87.5 181.95390625 87.0962890625 181.45 86.85 Z"/>

<path fill="#CF2022" stroke="none" d="
M 189.4 64.5
Q 188.672265625 63.8017578125 187.65 63.8
L 186.35 63.8
Q 186.2255859375 63.794140625 186.1 63.8 152.4025390625 67.080859375 137.65 70.75 137.5767578125 70.798828125 137.5 70.8 128.5888671875 73.6611328125 120.35 76
L 120.4 75.95
Q 115.750390625 77.1744140625 111.25 78.2
L 111.2 78.2
Q 106.3875 79.4826171875 97.85 82.05
L 97.9 82.05
Q 89.933203125 84.3318359375 81.7 85.6 80.6029296875 85.7072265625 78.95 85.95
L 78.9 85.95
Q 77.1201171875 86.283984375 74.85 86.8 69.0009765625 87.6701171875 55.65 88.4
L 55.6 88.4
Q 54.141015625 88.483203125 46.8 90.5
L 46.75 90.5
Q 42.484765625 91.75078125 40.3 92.4 39.5396484375 92.63828125 39.05 93.3 38.553125 93.9689453125 38.55 94.8 38.55 94.8294921875 38.55 94.85 38.3330078125 95.0310546875 38.15 95.2 36.526171875 97.02578125 36.6 98.95 36.2119140625 102.76953125 42.1 105.35
L 42 105.3
Q 46.4556640625 107.4458984375 53 107.45 59.15390625 107.4673828125 68.8 105.35 69.2591796875 105.27421875 69.65 105.15 69.6896484375 105.18828125 69.7 105.2 70.2189453125 105.341015625 70.7 105.25 71.2388671875 105.2244140625 71.7 104.95 73.57421875 103.90859375 77.1 102.6 77.172265625 102.5748046875 77.2 102.55 80.3537109375 101.2287109375 83.15 100.45
L 83.15 100.45
Q 86.4521484375 99.5130859375 89.05 99.2 89.1193359375 99.226171875 89.15 99.2 89.825 99.125 90.45 99 99.08828125 97.773046875 104.5 96.85 120.2607421875 94.4 132.4 91.4 150.8626953125 86.93125 155 86.05
L 180.55 86.05
Q 181.38125 86.0470703125 182.05 85.55 182.692578125 85.0763671875 182.9 84.3 183.6298828125 83.965625 184 83.25 184.3900390625 82.5568359375 184.25 81.75 184.2 81.189453125 184.2 80.35 184.2197265625 76.480859375 186.35 72.45 186.359765625 72.4486328125 186.35 72.4 186.71953125 71.7384765625 187.1 71.05 187.1390625 70.988671875 187.15 70.9 188.25390625 69.27109375 189.45 68 190.1638671875 67.2908203125 190.15 66.25 190.1337890625 65.2482421875 189.4 64.5
M 198.5 36.35
L 198.5 36.4
Q 190.5380859375 31.7826171875 184.45 30.75 176.437109375 29.2494140625 157.5 22.65
L 157.5 22.6
Q 139.7669921875 16.600390625 121.35 14.2 121.20703125 14.2021484375 121.05 14.2
L 97.5 14.2
Q 97.1822265625 14.19765625 96.85 14.25 90.98515625 15.796875 85.6 17.75 85.562109375 17.786328125 85.5 17.8 60.4525390625 26.3572265625 46.9 39.55 45.42734375 40.788671875 44.15 42.1
L 44.1 42.15
Q 30.5783203125 56.746484375 30.6 75.2 30.6056640625 81.5232421875 35 83.6
L 35 83.6
Q 36.47421875 84.3658203125 36.6 85.6 36.600390625 86.2169921875 36.55 86.5 36.2359375 87.02109375 35.4 87.9 34.89609375 88.465234375 34.75 89.2 34.661328125 89.9970703125 35 90.7 35.3359375 91.391796875 36 91.75 36.607421875 92.4802734375 37.5 92.6 38.436328125 92.7671875 39.2 92.25 41.8287109375 90.729296875 49.5 89.25 55.76328125 88.062109375 67.6 86.6
L 67.6 86.6
Q 73.0029296875 85.925 79.8 85.15 87.8646484375 84.3572265625 96.8 81.8
L 96.85 81.8
Q 106.0158203125 79.120703125 110.7 78 110.81875 78.004296875 110.9 77.95 127.8173828125 72.509375 137.9 69.95
L 137.9 69.95
Q 155.55390625 65.380859375 186.85 63.35 187.36328125 63.312890625 187.8 63.1
L 197.5 63.1
Q 197.895703125 63.2837890625 198.2 63.5 198.6546875 63.8353515625 199.15 63.95 199.6904296875 64.0603515625 200.2 63.95 205.541015625 62.8599609375 210 61.25
L 209.95 61.25
Q 212.3279296875 60.482421875 214.6 59.4 215.251171875 59.12109375 215.65 58.5 216.035546875 57.9287109375 216.05 57.2 216.0759765625 56.5216796875 215.7 55.9 215.1505859375 54.9248046875 214.3 53.7 214.300390625 53.6626953125 214.25 53.6 212.3369140625 50.4353515625 208.85 44.9 206.7197265625 41.1263671875 198.5 36.35 Z"/>
</g>

<g id="Layer2_0_FILL">
<path fill="#FFDD00" stroke="none" d="
M 97.4 245.8
Q 94 245.4 91.9 245 91.9 245.2 91.9 245.4 89.7552734375 255.221875 87.9 260.15 86.802734375 263.158203125 85.8 264.35 85.8654296875 264.3830078125 85.9 264.4 86.6416015625 264.775390625 87.3 265.1 96.6177734375 269.734375 102.6 271.75 103.8908203125 272.1859375 105 272.5 105.4740234375 272.61953125 105.9 272.7 106.859375 272.958984375 107.7 273.1 108.75 273.25 110.3 273.45 117.05 274.05 137.6 274.05 163.15 274.05 164.95 273.45 166.4 272.9 168.15 270.65 168.645703125 270.023828125 169.15 269.4 171.4783203125 266.554296875 173.75 264.2 173.35 264.35 172.75 264.35 172.2111328125 264.35 171.65 263.95 170.23671875 262.9921875 168.8 259.35 167.7015625 256.5560546875 166.6 252.15 165.85 248.3 165.4 245.65 151 247.6 128.9 247.05 108.3 246.5 106.3 246.95 106.9453125 246.95 107.4 246.95 107.1875 246.9546875 106.4 247.25 106.05 247.5 106.05 246.95 103.45 246.7 97.4 245.8 Z"/>
</g>

<g id="Layer1_0_FILL">
<path fill="#8C4D25" stroke="none" d="
M 23.8 215.8
Q 26.112890625 215.259765625 29.35 214 29.3728515625 214.012890625 29.4 214 29.85 213.8 30.3 213.6 30.7126953125 213.4203125 30.9 213 31.1220703125 212.630859375 31 212.2 30.9388671875 211.76171875 30.6 211.45 30.2494140625 211.1974609375 29.8 211.2
L 29.45 211.2
Q 25.8595703125 210.025390625 20.8 207.95 20.4310546875 207.78828125 20 207.9 19.6126953125 208.01171875 19.35 208.35 19.0958984375 208.68359375 19.1 209.1 19.0154296875 212.27890625 22.65 215.5 22.9029296875 215.7392578125 23.2 215.8 23.501171875 215.8994140625 23.8 215.8
M 49.3 108.95
Q 46.6427734375 108.661328125 44.5 108.25 44.0916015625 108.190625 43.7 108.4 43.3154296875 108.61328125 43.15 109 41.45 113.125 39.7 117.3 35.9984375 126.57109375 36 135.1 35.9923828125 141.8892578125 37.85 149.8 37.9875 150.2767578125 38.4 150.55 38.8146484375 150.8158203125 39.3 150.7 39.7921875 150.6423828125 40.1 150.25 40.3998046875 149.86171875 40.35 149.35 39.8537109375 144.4921875 39.85 140.3 39.849609375 132.7890625 42.3 126.2
L 42.3 126.2
Q 44.333203125 121.1751953125 50.2 110.8 50.436328125 110.45078125 50.35 110 50.3234375 109.599609375 50 109.3 49.7193359375 108.9994140625 49.3 108.95
M 199.15 92.3
Q 198.93203125 92.2455078125 198.7 92.25 198.237890625 92.2462890625 197.7 92.4 197.296484375 92.520703125 197.05 92.85 196.789453125 93.2234375 196.8 93.65 196.818359375 94.0734375 197.1 94.4 197.528515625 94.9158203125 197.8 95.55 197.824609375 95.5875 197.85 95.6 198.6150390625 97.1033203125 199.3 100.3 199.3251953125 100.6845703125 199.45 100.95 199.571484375 101.145703125 199.7 101.3 202.2955078125 103.77265625 204.2 105.9
L 204.25 105.9
Q 207.1396484375 108.9447265625 209 111.4 209.2794921875 111.76640625 209.7 111.85 210.16875 111.97890625 210.55 111.75 210.974609375 111.56875 211.15 111.15 211.3298828125 110.730859375 211.2 110.3 210.0572265625 106.4802734375 209.95 105.5
L 209.95 105.5
Q 209.289453125 100.0037109375 206.55 97.25 206.3646484375 97.0876953125 206.15 97 206.0365234375 96.8845703125 205.9 96.75
L 205.9 96.75
Q 202.88515625 93.7626953125 199.15 92.3
M 228.6 48.6
Q 228.2486328125 48.8990234375 228.15 49.35 227.5033203125 52.9767578125 222.4 57.3
L 222.35 57.3
Q 216.7453125 62.1685546875 209.55 64.1
L 209.6 64.05
Q 202.405859375 65.738671875 199.3 66.55
L 199.25 66.55
Q 193.8017578125 67.9984375 191.6 70 191.599609375 70.0517578125 191.55 70.05 190.8904296875 70.751171875 190.4 71.35 188.9587890625 73.0337890625 188 74.8 187.9193359375 74.9435546875 187.85 75.1 187.78984375 75.4505859375 187.4 76.4 187.2236328125 76.844140625 187.35 77.25 187.49140625 77.70234375 187.85 77.95 188.240625 78.1978515625 188.65 78.15 189.126171875 78.098828125 189.45 77.75 191.3072265625 75.876953125 193.65 74.65
L 193.65 74.65
Q 197.583203125 72.622265625 206.95 70.65
L 206.95 70.65
Q 217.0712890625 68.48125 221.5 66.25
L 221.45 66.25
Q 227.5904296875 63.379296875 231.15 58.4 231.333984375 58.1970703125 231.35 57.9 231.546875 56.9740234375 231.55 55.8 231.5626953125 54.88203125 230.85 49.4 230.7837890625 48.92265625 230.4 48.6 230.06953125 48.29453125 229.6 48.3
L 229.4 48.3
Q 228.9474609375 48.300390625 228.6 48.6
M 243.4 69.85
Q 243.39921875 69.3244140625 243 68.95 242.6482421875 68.587109375 242.1 68.6 235.0123046875 68.70078125 231.6 67.55 231.199609375 67.4388671875 230.8 67.55 230.4060546875 67.7044921875 230.15 68.05 229.9306640625 68.403125 229.95 68.8 229.975 69.250390625 230.25 69.55 232.40859375 72.0609375 235.65 73.6
L 235.55 73.55
Q 239.104296875 75.5939453125 242.25 75.35 242.739453125 75.3123046875 243.05 74.95 243.4052734375 74.5884765625 243.4 74.1
L 243.4 69.85 Z"/>

<path fill="#E29500" stroke="none" d="
M 91.15 244.35
Q 90.7751953125 244.6529296875 90.65 245.1 88.555078125 254.8431640625 86.75 259.7 85.7341796875 262.4578125 84.85 263.55 84.5947265625 263.84453125 84.55 264.2 84.5119140625 264.609375 84.7 264.95 84.8849609375 265.2953125 85.2 265.45
L 85.2 265.45
Q 85.2849609375 265.5060546875 85.35 265.55 86.07890625 265.9001953125 86.75 266.25
L 86.75 266.25
Q 96.1591796875 270.898828125 102.2 272.9 103.53046875 273.3751953125 104.7 273.7 105.16171875 273.8322265625 105.6 273.95 106.6123046875 274.186328125 107.5 274.3
L 107.5 274.35
Q 108.5859375 274.499609375 110.15 274.7 110.5611328125 274.7447265625 110.9 274.5 111.287890625 274.3140625 111.45 273.9 111.6095703125 273.546484375 111.5 273.15 111.35390625 272.5384765625 111.2 271.95
L 111.2 271.9
Q 110.1318359375 267.409375 110.05 264.95
L 110.05 264.9
Q 110.2287109375 264.59140625 110.2 264.25 110.1748046875 263.9072265625 109.95 263.6 109.77109375 263.3408203125 109.45 263.2 108.1978515625 262.6328125 106.45 261 103.725390625 258.4798828125 99.9 253.5
L 99.85 253.45
Q 95.3220703125 247.6083984375 92.85 244.6 92.5609375 244.2197265625 92.05 244.15 91.5853515625 244.0873046875 91.15 244.35 Z"/>

<path fill="#121C83" stroke="none" d="
M 111.15 222.3
Q 111.186328125 221.810546875 110.85 221.4 109.188671875 219.288671875 107.95 217.65 107.6642578125 217.2703125 107.2 217.15 106.7353515625 217.0826171875 106.3 217.3 104.107421875 218.6083984375 99.9 219.9
L 99.95 219.9
Q 84.911328125 224.3537109375 83.5 225.05
L 83.5 225.05
Q 80.4853515625 226.467578125 70.9 230.3 70.7001953125 230.383984375 70.5 230.55 67.3126953125 233.714453125 66.35 237
L 66.35 236.95
Q 62.515625 249.07421875 60.35 254.65
L 60.4 254.6
Q 60.334375 254.78203125 60.25 254.9 59.177734375 257.5373046875 58.2 259.55 56.90859375 262.3390625 55.85 263.95
L 55.85 263.95
Q 55.683984375 264.24609375 55.5 264.45 55.2484375 264.8720703125 55.3 265.35 55.3630859375 265.815234375 55.7 266.1 56.077734375 266.4453125 56.55 266.45
L 63.95 266.45
Q 64.2986328125 266.4544921875 64.6 266.25 64.906640625 266.08984375 65.05 265.75 65.9283203125 264.0890625 67 262.1 68.1341796875 259.97265625 69.5 257.5 70.806640625 255.1455078125 72.3 252.45 78.6607421875 241.454296875 83.35 234
L 83.35 234
Q 87.013671875 228.2375 97.7 225.25 104.8705078125 223.3576171875 109.85 223.45 110.3611328125 223.4587890625 110.7 223.1 111.101171875 222.7921875 111.15 222.3 Z"/>

<path fill="#3A0A04" stroke="none" d="
M 64.1 176
Q 63.99921875 178.0703125 64 180.9 63.992578125 185.182421875 65.75 194.35
L 65.75 194.35
Q 67.6759765625 202.940625 67.7 204.2 67.6984375 208.746875 64.7 210.2 64.6876953125 210.2373046875 64.65 210.25 62.4751953125 211.381640625 56.85 211.2 56.5060546875 211.186328125 56.2 211.35 55.8990234375 211.5232421875 55.7 211.8 55.5501953125 212.1138671875 55.55 212.45 55.4029296875 213.9009765625 58.05 216.65
L 58.05 216.65
Q 59.4212890625 218.02734375 60.4 218.7 59.3900390625 220.14765625 57.5 221.5 55.513671875 222.88515625 54.3 222.95 53.6373046875 222.9087890625 51.75 222.15 51.353125 221.96796875 50.9 222.1 50.4931640625 222.2396484375 50.25 222.6 49.996875 223.0193359375 50.05 223.45 50.1421875 224.8181640625 52.55 227.55 52.5744140625 227.5978515625 52.6 227.6 54.3490234375 229.4103515625 55.45 230.2 55.3498046875 230.8859375 55 231.7 54.9708984375 231.7892578125 54.95 231.85 54.438671875 233.611328125 54.45 234.75 54.45390625 238.18359375 55.8 239.8 56.2640625 240.403125 57.5 241.4 57.8072265625 241.6716796875 58.2 241.7 58.58828125 241.7283203125 58.9 241.5 59.275 241.3287109375 59.45 240.95 62.684765625 233.7806640625 63 233 63.037109375 232.9986328125 63.05 232.95 63.97109375 230.859375 67.1 228.9 67.2529296875 228.828515625 67.35 228.7 69.7544921875 226.090625 73.65 223.95
L 73.55 224
Q 81.525390625 220.3998046875 83.7 219.4
L 83.75 219.35
Q 85.0134765625 218.754296875 89.8 217.35
L 89.8 217.35
Q 94.9421875 215.77265625 97.7 214.6
L 97.75 214.6
Q 103.16015625 212.255078125 105.4 211.95 105.9333984375 211.9203125 106.3 211.75 106.60625 211.6359375 106.8 211.4 107.896875 210.14609375 107.9 208.15 107.90078125 208.1158203125 107.9 208.05
L 107.75 205.1
Q 107.72578125 204.7669921875 107.5 204.45 107.287890625 204.1650390625 106.95 204 100.7134765625 201.6515625 96.1 199.65
L 96.1 199.7
Q 96.0884765625 199.6859375 96.05 199.65 95.91484375 199.528515625 95.75 199.45 92.090625 197.8876953125 89.65 196.4 89.345703125 196.2484375 89 196.25 88.5625 196.2521484375 88.1 196.15 85.3845703125 195.5794921875 81.2 193.1 81.2 193.11328125 81.15 193.1 80.02890625 192.50234375 78.95 191.65 78.9384765625 191.6509765625 78.9 191.6 72.028515625 186.9939453125 69.8 182.75 69.7650390625 182.7099609375 69.7 182.65 68.9521484375 181.437109375 68.1 177 68.0337890625 176.5021484375 67.6 176.2 66.9107421875 175.7412109375 66.15 175.1 65.81015625 174.78203125 65.3 174.8 64.8302734375 174.81015625 64.45 175.15 64.12421875 175.5037109375 64.1 176
M 187.4 194.25
Q 186.97421875 194.2421875 186.6 194.5 181.8716796875 197.966015625 179 199.75
L 178.95 199.75
Q 173.23359375 203.4484375 167.25 205.25 167.1490234375 205.279296875 167.05 205.3 161.988671875 207.8603515625 157.2 209.85 153.7431640625 211.26875 150.85 212.1 150.4087890625 212.22265625 150.15 212.6 149.8962890625 212.9890625 149.95 213.45 150.008984375 213.8943359375 150.35 214.2 150.67734375 214.5201171875 151.1 214.55 153.83125 214.6970703125 158.35 215.9 167.5865234375 218.3681640625 173.55 221.3 173.5904296875 221.338671875 173.6 221.35 175.4185546875 222.102734375 179.65 224
L 179.65 224
Q 181.53828125 224.762890625 183.1 225.35 183.318359375 225.4546875 183.55 225.45
L 183.65 225.45
Q 183.6978515625 225.4521484375 183.75 225.45 185.1283203125 225.38046875 186.6 226.5 186.748828125 226.6123046875 186.9 226.65 189.55546875 227.619921875 190.55 229.2 190.774609375 229.66171875 191.3 232.5
L 191.3 232.55
Q 191.6751953125 234.1138671875 192.1 236.25 192.15078125 236.3775390625 192.2 236.5 193.125390625 238.6494140625 194.15 241.85 194.295703125 242.325 194.7 242.55 195.0947265625 242.8119140625 195.55 242.7 197.55 242.38984375 199.15 241.4
L 199.1 241.45
Q 204.0140625 238.7404296875 208.2 230.2 208.3521484375 229.937890625 208.35 229.65
L 208.35 227.5
Q 208.3494140625 227.1345703125 208.15 226.8 207.9541015625 226.5216796875 207.6 226.35 207.28984375 226.2103515625 206.9 226.25 203.2849609375 226.77421875 199.9 225.9
L 199.95 225.9
Q 197.73046875 225.2748046875 197.35 224.5
L 202.6 212.95
Q 202.8162109375 212.57265625 202.7 212.15 202.6193359375 211.73828125 202.25 211.45 201.9328125 211.203125 201.5 211.2
L 201.15 211.2
Q 200.8486328125 211.2048828125 200.55 211.35 199.5498046875 211.872265625 199.15 212 198.7466796875 212 197.5 212 193.2380859375 211.941796875 191.4 207.25 191.4123046875 207.2275390625 191.4 207.2 191.125390625 206.5126953125 188.55 195.2 188.48046875 194.8033203125 188.15 194.5 187.8224609375 194.2578125 187.4 194.25 Z"/>

<path fill="#DE9161" stroke="none" d="
M 57.25 141.1
Q 56.785546875 141.0494140625 56.4 141.3 52.0228515625 144.3306640625 50.6 149.5 50.552734375 149.6869140625 50.55 149.85 50.5361328125 149.924609375 50.45 150.5 50.435546875 150.7125 50.45 150.9 50.9234375 153.750390625 51.55 156.55
L 51.55 156.5
Q 54.2873046875 170.005859375 57.85 169.7 59.50859375 169.8650390625 60.8 167.4
L 60.8 167.45
Q 61.2923828125 166.5904296875 62.35 166.6
L 62.35 166.55
Q 62.7845703125 166.789453125 63.25 166.65 63.425 166.6 63.6 166.6 63.827734375 166.7685546875 64.65 167.6 64.921484375 167.896875 65.3 167.95 65.6708984375 168.0494140625 66 167.9 66.3701171875 167.7619140625 66.55 167.45 66.794921875 167.1328125 66.8 166.75 66.79921875 166.0666015625 67.05 165.6 67.25859375 165.302734375 67.25 164.9 67.244921875 164.54140625 67 164.2 66.7923828125 163.9099609375 66.4 163.75 64.40546875 162.9783203125 62 159.95
L 61.95 159.9
Q 59.1353515625 156.1466796875 58.35 152.75
L 58.35 142.35
Q 58.3451171875 141.8779296875 58 141.5 57.7142578125 141.1634765625 57.25 141.1
M 205.85 133.25
Q 205.5482421875 133.632421875 205.55 134.1
L 205.55 140.5
Q 205.554296875 141.01328125 205.9 141.35 206.0419921875 141.619921875 206.35 142.7 206.3943359375 142.8572265625 206.45 143 206.894140625 143.6931640625 207.5 144.15 207.902734375 144.4724609375 208.35 144.45 208.84296875 144.4140625 209.15 144.05 209.53203125 143.7509765625 209.7 143.2 209.737890625 143.162890625 209.75 143.1
L 209.75 143.1
Q 211.1724609375 140.190234375 211.85 138.15 211.976171875 137.866015625 211.9 137.55 211.88203125 137.247265625 211.7 137 211.4958984375 136.7373046875 211.35 136.6
L 211.3 136.55
Q 208.747265625 133.830078125 207.45 133.05 207.0671875 132.8044921875 206.6 132.85 206.14921875 132.93359375 205.85 133.25
M 180.95 88
Q 180.7099609375 87.89375 180.45 87.9
L 155.1 88.15
Q 154.96328125 88.1494140625 154.8 88.15 151.82578125 88.8212890625 133.75 93.3 127.0962890625 94.9658203125 118 96.55
L 113.45 97.35
Q 113.42734375 97.3486328125 113.35 97.35
L 113.35 97.35
Q 110.2423828125 97.873046875 106.85 98.35 99.3115234375 99.490234375 92.05 100.95
L 86.45 102.15 86.4 102.15
Q 83.9375 102.7515625 81.45 103.35 79.5986328125 103.7234375 77.65 104.3 77.62421875 104.3345703125 77.55 104.35 77.0119140625 104.4861328125 76.45 104.8 76.2294921875 104.9244140625 76.05 105.1 75.9169921875 105.3279296875 75.85 105.55 75.4126953125 107.2087890625 74 110.55 73.1015625 112.4056640625 72.3 113.7 72.1501953125 114.014453125 72.15 114.35 72.15 114.55 72.15 114.75 72.0779296875 115.2041015625 71.55 115.85
L 71.6 115.85
Q 70.39609375 117.2732421875 70.5 118.15 70.49609375 118.2103515625 70.5 118.25
L 71.3 125.5
Q 71.2759765625 131.1716796875 68.75 135.8
L 68.75 135.75
Q 65.5328125 141.4283203125 65.65 142.15 65.6203125 145.23359375 67.75 151.75
L 67.75 151.65
Q 69.43359375 157.70078125 69.45 160.4 69.4546875 162.2888671875 69.4 162.95 69.1666015625 163.516015625 68.7 163.85 68.31328125 164.204296875 68.25 164.7 68.1951171875 165.2296875 68.5 165.6 69.2828125 166.588671875 70.1 168.6
L 70.05 168.6
Q 70.2818359375 169.3091796875 70.15 172.6 69.9892578125 175.924609375 71.1 177.9 72.3787109375 180.931640625 73.3 182.55 73.3361328125 182.6248046875 73.35 182.65 74.6287109375 184.475390625 76.65 186 77.0423828125 186.2935546875 77.5 186.25 77.5931640625 186.2439453125 77.65 186.2 79.3916015625 187.2529296875 82.8 188.55 85.0470703125 190.1529296875 88 191.9
L 88 191.9
Q 89.7875 192.9376953125 91.55 193.9
L 91.5 193.85
Q 92.0908203125 194.216015625 92.8 194.7 93.142578125 194.91875 93.55 194.9 93.9533203125 194.8916015625 94.25 194.65 94.589453125 194.392578125 94.7 194 94.8111328125 193.625390625 94.65 193.25 94.2029296875 191.8615234375 93.85 190.4 93.7392578125 189.60546875 93.5 182.5 93.3025390625 173.87578125 92.55 168.4 92.5384765625 168.38828125 92.5 168.35 92.4076171875 167.796875 92.3 167.25
L 92.3 167.2
Q 91.3697265625 162.593359375 90.8 158.45 90.7412109375 158.0671875 90.45 157.75 90.158984375 157.484375 89.75 157.4 85.5529296875 156.7794921875 82.8 154.65
L 82.8 154.65
Q 80.995703125 153.2431640625 80.5 151.8 80.3373046875 151.3375 79.85 151.1 79.16796875 150.7205078125 78.8 150.25 78.555078125 149.910546875 78.55 149.5
L 78.55 149.45
Q 78.5595703125 147.866015625 80.1 147.85 80.48203125 147.8728515625 82.95 148.5 84.0642578125 148.7900390625 85.55 149.2
L 85.55 149.2
Q 86.9826171875 149.626171875 88.15 150.1 88.58203125 150.26484375 89 150.15 89.404296875 150.026953125 89.65 149.65 89.908984375 149.32578125 89.9 148.9
L 89.4 134.6
Q 89.4017578125 129.061328125 89.6 125 89.6134765625 124.6212890625 89.4 124.3 89.2009765625 123.961328125 88.85 123.8 88.48671875 123.6453125 88.1 123.7 84.798828125 124.4091796875 82.75 124.75
L 82.7 124.75
Q 80.7265625 125.0947265625 80 125.1 78.3078125 125.0982421875 77.35 124.75 77.1673828125 124.5763671875 77.05 124.4
L 77.05 124.35
Q 76.9494140625 124.16875 76.9 123.85 76.9037109375 123.682421875 76.9 123.5 76.926953125 123.3794921875 77 123.25
L 77 123.3
Q 77.625 122.5994140625 79.3 121.9
L 79.35 121.9
Q 81.4103515625 120.99375 85.05 120.2 85.1498046875 120.2072265625 85.25 120.15 85.944140625 119.9087890625 86.75 119.65
L 86.7 119.65
Q 87.8146484375 119.326953125 89.1 119 89.4677734375 118.93125 89.7 118.65 89.9728515625 118.372265625 90 118 90.3578125 116.0205078125 90.7 114.85 90.9095703125 114.2666015625 91.1 113.9 94.4146484375 109.4083984375 113.2 103.65 118.2208984375 102.1255859375 123 100.65 123.8669921875 100.410546875 124.7 100.15
L 124.65 100.15
Q 128.0435546875 99.2876953125 136.05 99
L 136.05 99
Q 145.388671875 98.437890625 161.7 98.55
L 161.7 98.55
Q 165.67734375 98.622265625 170 98.7
L 188.9 98.7
Q 188.97421875 98.7033203125 189.05 98.7
L 189.1 98.7
Q 189.1435546875 98.7013671875 189.15 98.7 191.1166015625 98.82109375 192.65 99.1 193.100390625 99.2216796875 193.5 99 193.9091796875 98.76484375 194.05 98.3 194.2365234375 97.890234375 194.05 97.45 193.4763671875 95.8654296875 193.1 94.85 192.9935546875 94.519140625 192.65 94.3 192.3607421875 94.0640625 191.95 94.05 188.018359375 93.9123046875 184.55 90.15 184.54765625 90.137109375 184.5 90.1 184.127734375 89.7220703125 183.75 89.25 183.49296875 88.9171875 183.05 88.8 182.7408203125 88.7607421875 182.55 88.65 182.3923828125 88.5994140625 182.2 88.55 181.6220703125 88.4712890625 181.35 88.3 181.195703125 88.1169921875 180.95 88 Z"/>

<path fill="#910231" stroke="none" d="
M 47.85 40.35
Q 46.34609375 41.6228515625 45.05 42.95
L 45 43
Q 31.8328125 57.2232421875 31.85 75.2 31.852734375 80.655078125 35.55 82.5
L 35.55 82.5
Q 37.7796875 83.6384765625 37.85 85.6 37.8439453125 86.62109375 37.7 87 37.321484375 87.670703125 36.3 88.75 36.073046875 89.0388671875 36 89.4 35.96171875 89.8046875 36.1 90.15 36.2927734375 90.4896484375 36.6 90.65 36.7984375 90.789453125 36.95 90.95 37.2474609375 91.315234375 37.7 91.35 38.1681640625 91.44609375 38.55 91.2 41.264453125 89.5583984375 49.25 88 55.550390625 86.8373046875 67.45 85.4 67.88671875 85.34140625 68.2 85 68.505078125 84.7103515625 68.55 84.25 68.590625 83.8435546875 68.35 83.45 68.1126953125 83.1125 67.7 82.95 66.680078125 82.610546875 65.5 81.85 65.48515625 81.8240234375 65.45 81.8 63.041015625 80.4509765625 62.8 80.05 62.81015625 78.410546875 63.35 75.95 63.4697265625 75.5318359375 63.25 75.1 63.0451171875 74.7216796875 62.6 74.55 62.203125 74.366015625 61.75 74.5 55.7181640625 76.456640625 51.3 72.1
L 51.25 72.1
Q 46.753515625 67.3888671875 46.75 58.45 46.7556640625 53.7744140625 48 48.05 48.5205078125 45.8583984375 49.85 41.7 49.9693359375 41.3369140625 49.8 40.95 49.692578125 40.558203125 49.35 40.3 49.0083984375 40.08515625 48.6 40.1 48.1802734375 40.11484375 47.85 40.35
M 83.55 97.35
Q 83.3400390625 97.0421875 82.95 96.9 82.828125 96.8275390625 82.65 96.7 82.6125 96.6884765625 82.55 96.65 81.49921875 95.9857421875 80.6 94.15
L 80.6 88.45
Q 80.6025390625 88.083203125 80.4 87.75 80.1935546875 87.4560546875 79.85 87.3 79.511328125 87.1560546875 79.15 87.2 77.3662109375 87.523046875 75.1 88
L 75.2 88
Q 69.3384765625 88.9109375 55.7 89.65
L 55.7 89.65
Q 54.2642578125 89.7416015625 47.1 91.7
L 47.1 91.7
Q 42.8486328125 92.950390625 40.7 93.6 40.3009765625 93.7189453125 40.05 94.05 39.8015625 94.384375 39.8 94.8 39.8 94.85 39.8 94.95 39.794140625 95.527734375 39.3 95.85 39.17578125 95.94921875 39.05 96.05 37.8130859375 97.469140625 37.85 98.95 37.6583984375 102.0357421875 42.6 104.2
L 42.55 104.15
Q 46.783984375 106.1978515625 53 106.2 59.058203125 106.2087890625 68.55 104.1
L 68.5 104.1
Q 69.0943359375 104.0345703125 69.6 103.9 69.845703125 103.923828125 70.1 104 70.3470703125 104.0767578125 70.6 104.05 70.8505859375 104.012109375 71.05 103.85 73.005859375 102.773046875 76.65 101.4 76.7109375 101.4123046875 76.75 101.4 79.9580078125 100.0330078125 82.8 99.25 83.2171875 99.141015625 83.45 98.8 83.728125 98.518359375 83.75 98.1 83.7701171875 97.719921875 83.55 97.35 Z"/>

<path fill="#F07B4F" stroke="none" d="
M 185.15 169.75
Q 184.7119140625 169.466796875 184.2 169.55 178.2115234375 170.782421875 177.25 170.8 177.0060546875 170.740234375 176.25 170.4 174.9537109375 169.81328125 174.15 169.85 174.001171875 169.855078125 173.85 169.9 147.3892578125 176.7244140625 142.7 177.45 132.3513671875 178.9849609375 124.75 181.3
L 124.8 181.3
Q 121.01015625 182.412890625 111.9 186.05 111.449609375 186.23515625 111.25 186.7 111.0521484375 187.1724609375 111.25 187.65 111.4341796875 188.136328125 111.9 188.35 121.5984375 192.5494140625 127.65 195.25 139.184375 200.37421875 147.75 200.35 153.260546875 200.4146484375 163 194.2 167.8474609375 191.0875 173.55 186.7
L 173.6 186.7
Q 183.2900390625 179.8158203125 185.45 171.5
L 185.5 171.5
Q 185.783203125 171.061328125 185.65 170.55 185.57734375 170.040625 185.15 169.75 Z"/>

<path fill="#FF956D" stroke="none" d="
M 188.5 65.4
Q 188.1609375 65.04453125 187.65 65.05
L 186.35 65.05
Q 186.2876953125 65.0470703125 186.2 65.05 152.6509765625 68.3091796875 137.95 71.95 137.91328125 71.9869140625 137.85 72 128.93828125 74.8494140625 120.7 77.2 120.22890625 77.3298828125 119.95 77.75 119.719921875 78.184765625 119.8 78.65 119.9357421875 79.1486328125 120.35 79.4 120.7478515625 79.703125 121.2 79.6 131.359375 78.1265625 143.75 75.6 164.780859375 71.508203125 184.05 72.55 184.449609375 72.566796875 184.75 72.35 185.1029296875 72.1841796875 185.25 71.85 185.66328125 71.0875 186.1 70.3
L 186.05 70.35
Q 187.2298828125 68.53984375 188.55 67.15 188.9068359375 66.7955078125 188.9 66.25 188.8919921875 65.7615234375 188.5 65.4
M 207.75 45.5
L 207.75 45.55
Q 205.7099609375 41.98828125 197.85 37.45 190.1501953125 32.99140625 184.25 31.95 176.176171875 30.479296875 157.1 23.8 139.47734375 17.825390625 121.2 15.45 121.122265625 15.4447265625 121.05 15.45
L 97.5 15.45
Q 97.3390625 15.455078125 97.15 15.5 91.322265625 17.0099609375 85.95 18.95 85.551171875 19.129296875 85.3 19.5 85.094921875 19.92578125 85.15 20.35 85.2529296875 20.8275390625 85.6 21.1 85.9486328125 21.4099609375 86.4 21.4
L 100.55 21.3
Q 118.576171875 21.3015625 136.85 26.65
L 136.8 26.6
Q 158.33203125 34.1408203125 171.7 38.05 188.8669921875 42.8859375 198.2 45.95 198.2279296875 45.9875 198.25 46 202.805859375 47.4216796875 205.75 53.65 205.799609375 53.725 205.8 53.75 207.4970703125 56.7080078125 207.9 59.1 207.9822265625 59.483984375 208.2 59.75 208.4728515625 60.0140625 208.8 60.1 209.1875 60.1921875 209.55 60.05 211.8638671875 59.303515625 214.05 58.25 214.4005859375 58.123046875 214.6 57.8 214.7927734375 57.526953125 214.8 57.15 214.806640625 56.8294921875 214.6 56.5 214.0666015625 55.5412109375 213.25 54.3 211.2880859375 51.098828125 207.75 45.5 Z"/>
</g>

<g id="Layer0_0_FILL">
<path fill="#000000" stroke="none" d="
M 173.1 247.05
Q 172.5 244.55 170.85 240.25 170.55 239.35 170.05 238.8 170.05 238.7 170.05 238.6 169.5 234 166.8 235.9 164.25 237.65 164.25 239.8 164.25 239.9 164.25 240 164.25 240.1 164.35 240.35 164.55 241.5 165.4 245.65 165.85 248.3 166.6 252.15 167.7015625 256.5560546875 168.8 259.35 170.23671875 262.9921875 171.65 263.95 172.2111328125 264.35 172.75 264.35 173.35 264.35 173.75 264.2 173.85 264.2 174.1 264.1
L 174.1 264.2
Q 174.55 264.45 174.85 264.45 175.1 264.45 175.2 264.45 176.755078125 264.29453125 177.35 263 177.7 262.240625 177.7 261.05 177.7 259.85703125 177.15 257.95 176.688671875 256.2345703125 175.75 253.9 173.35 248.3 173.1 247.05
M 91.9 245.4
Q 91.9 245.2 91.9 245 92.35 242.8 92.85 240.35 93.4 239.15 93.8 238 93.8 235.1 91.5 234.45 89.35 233.65 88.25 237.75 87.7 238.35 87.2 239.2 86.4 240.7 86 242.8 85.1 244.45 83.9 246.6 82.5 249 79.55 256.15 78.9791015625 257.5931640625 78.5 258.75 76.9 262.979296875 76.9 263.45 76.9 263.503515625 76.9 263.55 76.9177734375 264.67890625 77.3 265.3 77.95 266.15 79.55 266.15 80.125 266.15 81.35 264.25 81.5267578125 264.0271484375 81.7 263.75 81.95 263.45 82.05 263.2 82.05 263.3 82.25 263.55 82.454296875 264.1421875 82.85 264.5 83.5056640625 265 84.6 265 84.9015625 265 85.2 264.8 85.5015625 264.6734375 85.8 264.35 86.802734375 263.158203125 87.9 260.15 89.7552734375 255.221875 91.9 245.4
M 246.1 56.95
Q 244 56.95 243.35 58.25 243.0458984375 59.63984375 242.85 60.05 242.828515625 60.1044921875 242.8 60.15 242.621484375 60.1669921875 242.45 60.15 241.45078125 60.2837890625 240.55 60.4 238.828515625 60.602734375 237.5 60.85 238.041796875 59.0576171875 238.1 57.65 238.1462890625 57.441015625 238.15 57.2 238.15 57.18671875 238.15 57.15 238.15 56.979296875 237.95 55.7 237.5158203125 52.84140625 236.1 44.45 231.95 32.5 221.95 32.5 218.9 32.5 218.15 33.65 217.65 34.1 217.65 35.55 217.65 36.95 218.8 38.75 219.8 40.55 219.8 43.25 219.8 45.55 218.7 47.7 216.45 43.7 212.1 39.7 203.1 31.85 185.9 26.15 176.5 23.05 157.7 16.35 141.1 10.8 128.75 8.1
L 102.25 8.1
Q 68.55 9.65 44.15 33.65 23.25 54.15 23.25 72.5 23.25 76.9 25.3 81.45 27.05 85.4 29.7 87.1 29.6 87.95 29.6 89.25 29.45 90.55 29.9 91.45 30.2 92.55 31.05 93.05 29.25 95.3 29.25 98.5 29.1 101.65 30.2 104.35 32.05 108.6 36.4 109.5 34.7 111.25 33.45 114.05 32.3 117.15 31.55 118.5 30.8 120 29.95 127.35 29.35 133.7 29.35 136.8 29.35 138.85 29.35 143.6 29.35 147.8 29.9 150.6 32.35 162.65 33 164.7 36.6 172.3 39.3 178 44.4 189.15 44.4 193.05 44.4 196.1 41.05 200.35 40.15 201.45 39.45 202.35
L 29.9 202.45
Q 24.35 200.9 23.1 200.35 21.85 199.75 20.6 198.45 20.45 198.35 20.2 198.2 19.6 197.4 18.65 197.75 17.1 197.4 16.15 198.2 15.5 198.85 15.4 199.85 11.2 203.55 11.2 208.7 11.2 213.15 13.6 218.25 15.05 221.6 17.2 223.6 16.05 223.85 15.25 223.85 13.9 223.85 11.85 223.15 9.7 222.55 9.15 222.55 5.8 222.55 5.8 225.35 5.8 226.3 6.3 227.1 6.9 235.9 18.15 245.3 18.855859375 245.88828125 19.55 246.45 19.978125 246.76484375 20.35 247.05 20.4724609375 247.148046875 20.55 247.2
L 39.3 255.3
Q 42.3232421875 255.696484375 45.4 255.6 46.4380859375 256.426953125 47.3 257.05 48.9658203125 258.2314453125 50.1 258.75 48.94140625 261.16796875 48.35 262.5 47.8 263.8271484375 47.8 264.1 47.8 267.05 50.65 267.05 51.65 267.05 52.8 266.3 53.35 266.65 54.3 266.65 55.35 266.65 56.55 265.2 56.7337890625 264.9361328125 56.9 264.6 57.9927734375 262.9587890625 59.35 260.05 60.3146484375 258.0408203125 61.4 255.4 61.484375 255.25703125 61.55 255.1 63.7 249.5 67.55 237.35 68.45 234.35 71.4 231.45 81 227.6 84.05 226.2 85.45 225.5 100.3 221.1 104.65 219.75 106.95 218.4 108.2 220.05 109.9 222.2 111.3 223.85 113.05 225.8 122.65 236.25 129.45 236.25 134.85 236.25 145.4 220.85 149 223.15 159.4 225.95 171.75 229.25 184.15 230.9 186.15 234.45 187.9 238.6 189.6 248.55 190.4 252.5 190.7203125 253.881640625 191.05 255.1 191.76171875 257.855859375 192.5 259.9 193.617578125 262.9703125 194.8 264.5 195.1416015625 264.974609375 195.5 265.3 196.45 267.35 197.1 267.35 197.95 267.35 198.5 267.15 198.6 267.25 198.7 267.35 199.95 268.35 201.3 268.35 202.65 268.35 203.4 267.35 204.1 266.55 204.1 265.45 204.1 265.210546875 202.8 262.5 201.9373046875 260.756640625 200.5 257.95 200.4865234375 257.87265625 200.45 257.8 201.639453125 257.5984375 202.8 257.35 205.9501953125 256.5091796875 209.1 255.6 221.35 251.3 229.85 241.2 239.25 229.7 239.25 218.7 239.25 212.25 236.2 212 231.05 212.95 226.85 212.95 223.9 212.85 222.15 212.85 223.6 208.35 224.75 201.2 225 199.5 224.75 198.2 224.25 195.4 221.8 195.4 221 195.4 218.95 196.8 216.95 198.35 210 198.45 207.85 196.95 207.4 193.9 207.3 192.95 207.3 188.8 207.3 179.9 212.3 172.3 217.35 164.6 217.35 161.35 217.35 158.65 216 151.35 215.7 149.95 215.25 149.05 218.25 146.45 218.95 136.4
L 218.35 127.2
Q 218.35 126.5 218.15 125.85 219.6 123.2 220.35 117.7 220.35 112.35 217 103.75 216.95 103.5 215.35 100.4 214.45 98.8 214.1 97.65 217.8 99.05 222.95 99.05 239.35 99.05 246.35 88.1 250.6 81.4 250.6 73.65 250.6 73.45 250.5 65.05 249.65 56.95 246.1 56.95
M 184.05 33.2
Q 189.75 34.2 197.25 38.55 204.7 42.85 206.7 46.2 210.25 51.8 212.2 55 213 56.2 213.55 57.15 211.4 58.15 209.15 58.9 204.85 60.45 199.7 61.5 198.95 60.95 197.95 60.6
L 186.7 60.6 186.7 60.85
Q 155.1 62.9 137.3 67.55 127.15 70.1 110.15 75.6 105.4 76.7 96.15 79.4 87.4 81.9 79.55 82.7 72.7 83.45 67.3 84.15 55.35 85.6 49.05 86.8 40.7 88.4 37.9 90.15 37.6 89.8 37.25 89.6 38.45 88.3 38.85 87.55 39.1 87 39.1 85.6 39.1 82.9 36.15 81.4 33.1 79.8 33.1 75.2 33.1 57.7 45.95 43.85 47.2 42.55 48.65 41.35 61.9 28.5 86.4 20.15 91.7 18.2 97.5 16.7
L 121.05 16.7
Q 139.2 19.05 156.7 25 175.9 31.7 184.05 33.2
M 191.35 72.2
Q 191.8 71.6 192.45 70.95 194.5 69.1 199.6 67.75 202.7 66.95 209.9 65.3 217.35 63.3 223.2 58.25 228.75 53.55 229.4 49.55
L 229.6 49.55
Q 230.3 54.9 230.3 55.8 230.3 56.85 230.15 57.7 229.95 59.75 229.2 60.95 228.05 62.6 228.05 64.6 228.05 66.85 229.7 68 230.05 68.2 230.5 68.35 230.75 68.5 231.2 68.75 234.75 69.95 242.15 69.85
L 242.15 75.7
Q 241.55 78.55 241.15 80.05 240.2 82.7 237.85 84.35 236.55 85.5 231.2 88.1 229.7 88.65 228.5 89.25 227.25 89.7 226.4 90.05 224.35 90.75 223.45 90.75
L 222.5 90.75
Q 222.4 90.55 222.3 90.4 216.6 90.25 212.7 89 211.65 88.75 211.15 88.45 209.3 87.35 204.15 87.35 200.95 87.35 198.6 87.75
L 198.05 87.75
Q 197.75 87.85 197.35 87.95 197.1 87.95 197.05 88.1 196.05 88.2 195.25 88.45 192.3 89.6 192.05 89.6 189.4 89.6 188.15 87.45 188.05 87.25 187.9 86.9 187.65 86.5 187.9 86.1 187.9 84.75 187.5 82.2 187.5 81.9 187.5 81.65
L 187.35 81.65 187.35 79.7
Q 188.15 77.9 188.55 76.9 189 75.8 189.1 75.4 190 73.75 191.35 72.2
M 185 69.7
Q 184.55 70.5 184.15 71.3 181.7 75.9 181.7 80.35 181.7 81.4 181.8 82.1 180.85 82.55 180.55 83.55
L 154.75 83.55
Q 150.9 84.35 131.8 89 119.75 91.95 104.1 94.4 98.7 95.3 90.1 96.55 89.45 96.65 88.8 96.75 86 97.05 82.5 98.05 79.55 98.85 76.25 100.25 72.45 101.65 70.45 102.8 69.95 102.65 69.5 102.65 68.95 102.8 68.3 102.9 58.95 104.95 53 104.95 47.1 104.95 43.1 103.05 39.1 101.3 39.1 98.95 39.1 97.9 40 96.9 41.05 96.2 41.05 94.95 41.05 94.85 41.05 94.8 43.2 94.15 47.45 92.9 54.4 91 55.8 90.9 69.5 90.15 75.4 89.25 77.6 88.75 79.35 88.45 80.9 88.2 81.95 88.1 90.4 86.8 98.6 84.45 107.05 81.9 111.85 80.65 116.35 79.6 121.05 78.4 129.3 76.05 138.25 73.2 152.9 69.55 186.35 66.3
L 187.65 66.3
Q 186.25 67.75 185 69.7
M 180.45 89.15
Q 180.85 89.6 182 89.8 182.3 89.95 182.8 90.05 183.2 90.55 183.65 91 187.5 95.2 191.95 95.3 192.3 96.3 192.9 97.9 193.25 98.85 193.75 100.15 195.7 104.9 197.1 108.25 197.95 110 198.6 111.45 200.05 114.45 201.5 119.8 201.75 121.3 201.75 122.25
L 201.75 122.35
Q 201.3 126.5 201.5 129.05 201.65 130 201.75 130.75
L 201.75 139.9
Q 201.7787109375 139.9572265625 201.85 140.45 201.902734375 140.911328125 201.95 141.65 202.135546875 143.1388671875 202.4 145.85 202.5 145.8 202.65 145.8 202.7 145.95 202.8 146.35 202.8 146.45 202.8 146.6 202.8 147.8 206.25 153.95 207.4 156.15 208.3 157.85 208.7 158.65 208.85 159.25 208.7 160.05 208.6 161.45 208.3 163.55 207.85 164.25 205.9 167.1 204.1 169.55 202.05 172.55 201.3 174.25 199.1 176.55 196.2 179.6 187.65 187.9 184.05 190.7 178.15 194.6 165.2 201 148.5 209.1 142.45 209.1 135.4 209.1 118.65 203.8 102.85 198.65 93.5 193.65 92.75 193.15 92.15 192.8 90.4 191.85 88.65 190.85 85.65 189.05 83.4 187.45 79.75 186.05 78.05 185 77.7 184.8 77.4 184.6 77.4 184.7 77.4 185 75.55 183.6 74.4 181.95 73.5 180.35 72.25 177.4 71.25 175.65 71.4 172.65 71.55 168.95 71.25 168.15 70.35 165.9 69.5 164.85 70.25 164.25 70.6 163.3 70.7 162.65 70.7 160.4 70.7 157.6 68.95 151.35 66.9 145.1 66.9 142.15 66.9 141.55 69.85 136.4 72.55 131.45 72.55 125.4
L 71.75 118.15
Q 71.75 117.6 72.55 116.65 73.4 115.55 73.4 114.75 73.4 114.55 73.4 114.35 74.2 113 75.15 111.1 76.6 107.6 77.05 105.9 77.5 105.65 77.95 105.55 79.85 104.95 81.7 104.6 84.1865234375 103.9732421875 86.7 103.4
L 92.3 102.2
Q 99.525 100.716015625 107.05 99.6 110.4302734375 99.0982421875 113.55 98.6 113.6189453125 98.588671875 113.65 98.55
L 118.25 97.8
Q 127.3650390625 96.1912109375 134.05 94.55 152.1 90.05 155.1 89.4
L 180.45 89.15
M 198.95 95.05
Q 198.6 94.25 198.05 93.6 198.4 93.5 198.7 93.5 202.2 94.85 205.05 97.65 205.3 97.9 205.5 98.15
L 205.65 98.15
Q 208.1 100.65 208.7 105.65 208.8 106.65 210 110.65 210 110.85 210 110.95 210.95 114.55 210.95 116.4
L 210.7 117.6
Q 208.3 117.95 208.3 120.1 208.3 120.4 208.3 120.5 208.1 120.5 207.85 120.5 207.4 120.5 207.2 120.65 206.9 118.6 206.5 115.45 206.45 113.3 204.85 109.5 204.1 107.6 203.1 107.4 202.5 106 202.2 105.45 201.3 103.85 200.6 100.4 200.55 100.3 200.55 100.15 199.8 96.65 198.95 95.05
M 206.8 129.6
Q 207.3 129.4 207.75 129.05 208.7 128.3 209.6 128.05 210 128.65 210.55 131.2 211.2 133.85 211.2 134.85 211.2 135.95 210.7 137.75 210 139.75 208.6 142.65 208.5 143 208.3 143.2 207.85 142.85 207.55 142.35 207.1 140.8 206.8 140.5
L 206.8 129.6
M 198.4 185.4
Q 198.8 184.8 199.4 184.3 199.5 186.15 200.3 196.8 200.3 196.95 200.45 197.05 200.6 199.5 202.8 202.9 206 207.45 211.2 208.25 211.75 208.7 212.7 208.8 212.7 209 212.8 209.2
L 215.45 209.1 215.45 209.2
Q 215.35 210.4 213.35 213.1 211.65 215.5 211.65 216.85 211.65 222.45 229.7 223.3 226.15 231.45 217 240.25 211.55 245.3 204.1 247.6 200.05 248.7 197.6 249.4 197.35 248.4 197.05 247.25 196.2 244 195.35 241.5 194.3 238.2 193.35 236 192.9 233.85 192.55 232.3 191.95 229.15 191.7 228.65 190.55 226.65 187.35 225.5 185.45 224.05 183.65 224.2
L 183.55 224.2
Q 182 223.6 180.15 222.85 175.9 220.95 174.1 220.2 168.05 217.2 158.7 214.7 154 213.45 151.2 213.3 154.15 212.45 157.7 211 162.5 209 167.6 206.45 173.75 204.6 179.65 200.8 182.55 199 187.35 195.5 188.45 194.75 189.6 193.9 189.75 193.75 189.95 193.65 192.2 190.05 197.95 185.85 198.2 185.7 198.4 185.5
L 198.4 185.4
M 69.4 107.85
Q 69.7 107.95 70.25 107.95 69.95 108.6 69.5 109 67.55 111.25 67.55 113.15 67.55 113.6 67.55 113.95 66.15 115.45 66.15 118.05
L 66.9 125.4
Q 66.9 129.7 66.6 130.65 66 132.15 62.25 136.9 62.15 136.8 60.65 134.85 59.15 133.1 57.55 133.1
L 57.45 133.1
Q 57.1 132.7 56.9 132.05 54.65 128.05 52.15 128.05 47.2 128.05 45.75 135.55 45.15 138.1 45.15 143.9 45.5 151.55 47.2 159.1 50.85 174.1 58.15 174.1 60.65 174.1 62.8 172.45 64 174.8 65.35 176.05 66.15 176.75 66.9 177.25 67.8 182.05 68.7 183.35 71 187.8 78.2 192.65 79.35 193.55 80.6 194.2 85 196.8 87.9 197.4 88.45 197.5 89 197.5 91.5 199 95.25 200.6 95.35 200.7 95.55 200.8 100.2 202.8 106.5 205.2
L 106.65 208.15
Q 106.65 209.65 105.85 210.6 105.6 210.7 105.25 210.7 102.9 211 97.25 213.45 94.5 214.6 89.45 216.15 84.5 217.6 83.2 218.25 81 219.25 73.05 222.85 68.95 225.1 66.45 227.85 62.9 230.05 61.9 232.5 61.55 233.25 58.3 240.45 56.45 244.45 53.6 250.5 53.35 251.15 53.1 251.95 52.25 251.15 51.3 250.5 51.3 250.25 51.3 250.05 51.3 247.95 47.3 247.7 39.3 247.15 32.55 245.3 30.1 244.45 24.45 238.6 22.1 236.35 20.45 234.45
L 20.45 234.1
Q 20 233.45 19.9 232.65 24.9 231.65 29 227.75 32.55 224.2 32.55 221.5 32.55 220.6 26.4 216.75 24.8 215.6 23.5 214.6 20.35 211.8 20.35 209.1 25.55 211.25 29.25 212.45
L 38.35 212.45
Q 49.3 207.7 51.65 203.25 51.8 202.9 51.95 202.35 52.45 201.3 52.45 200.35
L 52.25 199.95
Q 52.55 197.65 52.55 193.75 52.55 183.8 44.95 166.4 40.95 157.5 39.1 149.5 37.25 141.75 37.25 135.1 37.25 126.8 40.85 117.8 42.6 113.6 44.3 109.5 46.45 109.9 49.15 110.2 50.4 110.3 51.65 110.45
L 60.65 110.45
Q 65.25 109 69.4 107.85
M 56.55 139.2
Q 56.8 139.6 57.1 139.9
L 57.1 152.95
Q 57.9 156.6 61 160.7 63.7 164.1 66 164.95 65.55 165.65 65.55 166.75 64.2 165.35 63.6 165.35 63.25 165.35 62.9 165.45 62.7 165.35 62.35 165.35 60.55 165.35 59.7 166.85 58.85 168.45 57.85 168.45 55.25 168.45 52.8 156.25 52.15 153.5 51.7 150.7 51.2 147.25 50.85 143.7 50.85 143 51.95 135.25 52.55 139.4 55.7 139.4 56.05 139.4 56.55 139.2
M 140.95 214.85
L 140.95 214.95
Q 140.95 217.7 140.85 217.95 140.55 218.5 137.1 222.55 135.05 225.3 129.15 230.2 124.9 230.2 117.65 222.55 112.85 217.5 111.5 215.05 116.15 214.5 121.1 210.25 134.15 214.4 140.95 214.85
M 77.3 149.45
L 77.3 149.5
Q 77.3 150.3078125 77.75 150.95 78.279296875 151.6640625 79.3 152.2 79.85 153.95 82.05 155.65 85 157.95 89.55 158.65
L 89.55 158.65
Q 90.7095703125 158.85 92.05 158.85
L 110.15 158.85
Q 114.9 157.95 125.55 154.3 131.15 152.35 134.5 150.7 141.4 147.8 141.4 145.1 141.4 142.45 138.85 142.75 137.4 142.05 134.4 143.2 128.4 146.8 127.35 147.15 124.8 148.1 122.55 149.05 120.9 149.4 119.4 149.8
L 92.35 149.8
Q 91.7 149.7 88.65 148.95 87.4 148.45 85.9 148 84.37578125 147.5896484375 83.25 147.3 80.5240234375 146.6 80.1 146.6 77.3171875 146.6 77.3 149.45
M 78.85 120.75
Q 76.7619140625 121.5982421875 76 122.5 75.65 122.99609375 75.65 123.5 75.65 123.7478515625 75.65 123.95 75.73671875 124.636328125 76 125.05 76.25 125.45 76.7 125.85 77.85 126.35 80 126.35 80.7904296875 126.35 82.95 125.95 85.01796875 125.6359375 88.35 124.95 92.35 123.9 98.6 122.5 116.6 118.25 119.75 117.7 128.65 116.3 132.75 112 133.7185546875 110.9435546875 134.45 109.85 134.9869140625 109.1140625 135.4 108.35 136.15 106.85 136.15 104.95 136.15 104.885546875 136.15 104.8 136.15 104.7142578125 136.15 104.6 136.15 104.25 136.15 104 136.15 102.2 135.85 101.45 135.2 99.85 133.35 101.15 132.95 101.15 132.5 101.3 131.8 101.45 131.35 101.75 131.1490234375 101.8974609375 131 102.05 130.5732421875 102.56796875 130.5 103.3 130.4 104.45 130.25 105.05 130.05 105.65 129.8 106.2 129.19453125 106.80546875 128.25 107.35 126.663671875 108.3822265625 124.1 109.3 121.7 110.2 115.3 111.9 101.5 114.65 93.25 116.65 90.9 117.15 88.8 117.8 87.48671875 118.1140625 86.35 118.45 85.529296875 118.72109375 84.8 119 81 119.8 78.85 120.75
M 190.4 168.95
Q 190.4 166.65 189.5 166.15 187.05 164.95 177.8 164.95 173.85 164.95 165.75 167.55 158 170.25 157.15 170.3 134.7 174.1 133.3 174.4 124.8 176.45 118.1 178.5 104.9 182.9 104.9 187.05 104.9 190.05 121.4 197.25 138.5 204.8 147.95 204.8 158.5 204.8 179.3 188.05 183.9 184.6 187.15 178.8 190.4 173.1 190.4 168.95
M 184.45 170.8
L 184.35 170.95
Q 182.3 179 172.85 185.7 167.15 190.05 162.35 193.15 153 199.1 147.75 199.1 139.4 199.1 128.15 194.1 122.1 191.4 112.4 187.2 121.4 183.6 125.15 182.5 132.65 180.2 142.9 178.7 147.6 177.95 174.15 171.1 174.75 171.1 175.75 171.55 176.85 172.05 177.25 172.05 178.25 172.05 184.45 170.8
M 201.5 141.55
Q 201.5 141.4421875 201.5 141.35 201.4443359375 139.965234375 200.7 139.5 200.3 137.1 197.25 138 197.21015625 138.0265625 196.7 138.25 195.306640625 138.8705078125 190.35 141 186.4 142.65 177.55 145.25
L 160.55 145.45
Q 156.25 143.75 155.9 143.7 153 142.85 150.3 142.85 148.5 142.85 147.6 144.1 146.9 144.95 146.9 145.7 146.9 146.9 148.05 147.8 148.8 149.4 153 151.05 157.75 152.95 161.85 153.3
L 178.75 153.3
Q 183.1068359375 152.2083984375 186.6 151.1 196.5458984375 147.9923828125 199.85 144.75 201.5 143.1796875 201.5 141.55
M 197.05 121.95
Q 198.3 121.95 199.1 120.85 199.17109375 120.7255859375 199.2 120.6 199.7 119.7111328125 199.7 119.05 199.7 118.1275390625 198.1 116.95 194.094140625 113.955078125 179.95 109.3 170.7494140625 106.355859375 160.7 103.75 159.829296875 103.523828125 158.95 103.3 159.763671875 99.8515625 157.95 99.05 157.4427734375 98.85 156.7 98.85 154.6 98.85 152.8 101.75 152.5205078125 102.2337890625 152.3 102.65 151.5 104.247265625 151.5 105.15 151.5 106.609765625 154 107.85 155.9634765625 108.8728515625 159.45 109.75 164.05 111.05 172.85 113 175 113.7 186.15 118.05 196.55 121.95 197.05 121.95 Z"/>
</g>
</defs>

<g transform="matrix( 1, 0, 0, 1, 0,0) ">
<use xlink:href="#Layer4_0_FILL"/>
</g>

<g transform="matrix( 1, 0, 0, 1, 0,0) ">
<use xlink:href="#Layer3_0_FILL"/>
</g>

<g transform="matrix( 1, 0, 0, 1, 0,0) ">
<use xlink:href="#Layer2_0_FILL"/>
</g>

<g transform="matrix( 1, 0, 0, 1, 0,0) ">
<use xlink:href="#Layer1_0_FILL"/>
</g>

<g transform="matrix( 1, 0, 0, 1, 0,0) ">
<use xlink:href="#Layer0_0_FILL"/>
</g>
</svg>
