<?xml version="1.0" encoding="UTF-8" standalone="no"?>
<!DOCTYPE svg PUBLIC "-//W3C//DTD SVG 1.1//EN" "http://www.w3.org/Graphics/SVG/1.1/DTD/svg11.dtd">
<svg width="100%" height="100%" viewBox="0 0 32 32" version="1.1" xmlns="http://www.w3.org/2000/svg" xmlns:xlink="http://www.w3.org/1999/xlink" xml:space="preserve" xmlns:serif="http://www.serif.com/" style="fill-rule:evenodd;clip-rule:evenodd;stroke-linejoin:round;stroke-miterlimit:2;">
    <g id="Add">
        <g transform="matrix(0.936791,0,0,0.936791,1.01134,1.01134)">
            <path d="M12.264,-1.08L19.736,-1.08C20.915,-1.08 21.871,-0.124 21.871,1.055L21.871,10.129L30.945,10.129C32.124,10.129 33.08,11.085 33.08,12.264L33.08,19.736C33.08,20.915 32.124,21.871 30.945,21.871L21.871,21.871L21.871,30.945C21.871,32.124 20.915,33.08 19.736,33.08L12.264,33.08C11.085,33.08 10.129,32.124 10.129,30.945L10.129,21.871L1.055,21.871C-0.124,21.871 -1.08,20.915 -1.08,19.736L-1.08,12.264C-1.08,11.085 -0.124,10.129 1.055,10.129L10.129,10.129L10.129,1.055C10.129,-0.124 11.085,-1.08 12.264,-1.08Z" style="fill-opacity:0.33;"/>
        </g>
        <g transform="matrix(0.936791,0,0,0.936791,1.01134,1.01134)">
            <path d="M12.264,1.055L19.736,1.055L19.736,12.264L30.945,12.264L30.945,19.736L19.736,19.736L19.736,30.945L12.264,30.945L12.264,19.736L1.055,19.736L1.055,12.264L12.264,12.264L12.264,1.055Z" style="fill:white;"/>
        </g>
    </g>
</svg>
