<?xml version="1.0" encoding="UTF-8" standalone="no"?>
<!DOCTYPE svg PUBLIC "-//W3C//DTD SVG 1.1//EN" "http://www.w3.org/Graphics/SVG/1.1/DTD/svg11.dtd">
<svg width="100%" height="100%" viewBox="0 0 32 32" version="1.1" xmlns="http://www.w3.org/2000/svg" xmlns:xlink="http://www.w3.org/1999/xlink" xml:space="preserve" xmlns:serif="http://www.serif.com/" style="fill-rule:evenodd;clip-rule:evenodd;stroke-linejoin:round;stroke-miterlimit:2;">
    <g id="Remove">
        <g transform="matrix(1.06649,0,0,0.871739,0.297872,5.11478)">
            <path d="M10.082,-2.426L10.102,-2.659L10.294,-3.416L10.597,-4.099L10.996,-4.691L11.48,-5.18L12.038,-5.551L12.657,-5.786L13.317,-5.867L16.13,-5.867L16.789,-5.786L17.408,-5.551L17.966,-5.18L18.45,-4.691L18.85,-4.099L19.153,-3.416L19.345,-2.659L19.364,-2.426L23.162,-2.426C25.232,-2.426 26.913,-0.37 26.913,2.163L26.913,4.457C26.913,5.328 26.516,6.085 25.932,6.474L25.037,22.883C25.017,27.406 23.117,30.841 19.411,30.841L10.035,30.841C6.331,30.841 4.431,27.409 4.409,22.891L3.515,6.474C2.93,6.085 2.534,5.328 2.534,4.457L2.534,2.163C2.534,-0.37 4.214,-2.426 6.284,-2.426L10.082,-2.426Z" style="fill-opacity:0.33;"/>
        </g>
        <g transform="matrix(1.06649,0,0,0.871739,0.297872,5.11478)">
            <path d="M24.1,5.604L23.162,22.811C23.162,25.977 21.999,28.547 19.411,28.547L10.035,28.547C7.447,28.547 6.284,25.977 6.284,22.811L5.347,5.604L24.1,5.604ZM10.973,7.898L8.16,7.898L8.628,23.385C8.628,24.334 9.259,25.105 10.035,25.105C10.811,25.105 11.441,24.334 11.441,23.385L10.973,7.898ZM16.13,7.898L13.317,7.898L13.317,23.385C13.317,24.334 13.947,25.105 14.723,25.105C15.499,25.105 16.13,24.334 16.13,23.385L16.13,7.898ZM21.287,7.898L18.474,7.898L18.005,23.385C18.005,24.334 18.635,25.105 19.411,25.105C20.188,25.105 20.818,24.334 20.818,23.385L21.287,7.898ZM17.536,-0.132L23.162,-0.132C24.197,-0.132 25.037,0.896 25.037,2.163L25.037,4.457L4.409,4.457L4.409,2.163C4.409,0.896 5.249,-0.132 6.284,-0.132L11.91,-0.132L11.91,-1.852C11.91,-2.802 12.54,-3.573 13.317,-3.573L16.13,-3.573C16.906,-3.573 17.536,-2.802 17.536,-1.852L17.536,-0.132Z" style="fill:white;"/>
        </g>
    </g>
</svg>
